:SAMPLES-PER-SECOND 30
:FULLY-SPECIFIED
:DEGREES
259
root  7.02793 25.4943 0.262627 -30.9001 -64.4997 27.0275
RightUpLeg  -58.8823 11.1964 -11.5206
RightLeg  106.124 2.57817 -6.78421
RightFoot  -28.7835 1.37895 10.2427
RightToes  -1.28057e-009 0 -3.6325e-017
Spine  48.4796 -5.9227 2.33255
Spine1  2.61332 -1.08637 -17.3137
HEad  -42.4742 -21.7183 9.24374
LeftShoulder1  1.25329 -5.93747 -5.47493
LeftArm  -44.717 -40.7279 -48.3855
LeftForeArm  29.4621 -46.1939 -9.59436
LeftHand  1.59018 8.38136 55.2402
RightShoulder  0.124957 -0.839815 -4.30197
RightArm  -0.125151 42.8951 70.4685
RightForeArm  100.38 79.9775 56.3111
RightHand  -1.71568 -1.29938 -46.4961
LeftUpLeg  -53.6534 8.21135 -19.3697
LeftLeg  98.3934 -1.97627 9.17543
LeftFoot  -35.8047 -1.68933 -8.80917
LeftToes  -7.27922e-012 9.28972e-011 -9.04533e-012
260
root  6.62839 26.6852 0.258563 -28.5711 -64.0376 24.8656
RightUpLeg  -55.4062 10.9539 -9.9596
RightLeg  101.929 2.47906 -8.55079
RightFoot  -27.0503 1.18197 9.87544
RightToes  -1.28057e-009 0 -3.6325e-017
Spine  47.4052 -5.26754 2.13691
Spine1  0.434718 -1.19049 -15.895
HEad  -39.5453 -20.6705 8.41178
LeftShoulder1  1.11031 -5.29619 -4.73525
LeftArm  -42.551 -40.5409 -50.896
LeftForeArm  41.9051 -62.2329 -17.9177
LeftHand  1.60168 8.41627 55.0543
RightShoulder  0.205702 -0.688565 -1.4039
RightArm  -11.8016 38.4395 58.6311
RightForeArm  175.13 78.0987 136.057
RightHand  -1.62434 -1.54275 -46.7647
LeftUpLeg  -51.297 7.00989 -17.2309
LeftLeg  95.357 -1.21626 7.3047
LeftFoot  -32.1001 -1.84294 -11.0874
LeftToes  -7.27922e-012 9.28972e-011 -9.04533e-012
261
root  6.17629 27.7743 -0.00150408 -19.4058 -63.8469 15.0086
RightUpLeg  -51.8163 7.90534 -4.44073
RightLeg  97.4982 1.6882 -8.04808
RightFoot  -24.9015 0.865757 8.68523
RightToes  -1.28057e-009 0 -3.6325e-017
Spine  47.4042 -2.85016 0.648681
Spine1  -2.29109 -1.16014 -7.92922
HEad  -37.7059 -18.7433 7.28582
LeftShoulder1  1.02726 -5.30106 -3.67582
LeftArm  -34.2687 -42.1473 -56.6996
LeftForeArm  73.0241 -77.1891 -44.1025
LeftHand  1.55254 8.42384 53.5623
RightShoulder  0.40091 -0.00313485 3.40796
RightArm  -24.7282 29.5717 46.1374
RightForeArm  -172.093 69.0591 157.286
RightHand  -1.81508 -1.25598 -48.4142
LeftUpLeg  -49.659 3.135 -11.939
LeftLeg  92.9925 -1.09536 9.4068
LeftFoot  -28.3523 -1.6237 -11.9258
LeftToes  -7.27922e-012 9.28972e-011 -9.04533e-012
262
root  5.66769 28.799 -0.396631 -5.32732 -62.2254 0.0995636
RightUpLeg  -48.6108 2.35294 3.45169
RightLeg  92.3078 0.734854 -5.63277
RightFoot  -22.8281 0.516516 6.65307
RightToes  -1.28057e-009 0 -3.6325e-017
Spine  46.4024 0.0417912 -1.35022
Spine1  -3.04888 -1.19674 4.39378
HEad  -36.9582 -16.2041 5.32153
LeftShoulder1  0.969507 -5.95717 -2.06515
LeftArm  -20.2682 -45.9664 -64.066
LeftForeArm  152.27 -80.6446 -117.392
LeftHand  1.36104 8.14854 51.7593
RightShoulder  0.667744 0.719725 8.39141
RightArm  -35.6981 20.1909 37.8229
RightForeArm  -176.765 66.4479 159.201
RightHand  -1.95456 -1.10059 -50.0516
LeftUpLeg  -48.8204 -2.92816 -4.40845
LeftLeg  90.6627 -0.937685 14.1526
LeftFoot  -25.6278 -1.29782 -11.553
LeftToes  -7.27922e-012 9.28972e-011 -9.04533e-012
263
root  5.10969 29.8487 -0.810001 9.52744 -57.7798 -15.0416
RightUpLeg  -46.1304 -5.46754 12.8445
RightLeg  85.5861 0.168617 -2.8933
RightFoot  -21.1845 0.180889 3.77308
RightToes  -1.28057e-009 0 -3.6325e-017
Spine  43.996 1.95981 -3.19145
Spine1  -2.30714 -2.45916 18.5376
HEad  -36.3853 -12.5459 2.73469
LeftShoulder1  0.766802 -5.9321 0.39251
LeftArm  0.171268 -49.7982 -74.6248
LeftForeArm  -177.978 -77.8235 -139.124
LeftHand  0.585662 6.59116 50.0231
RightShoulder  0.949681 1.41483 12.2991
RightArm  -42.2627 13.7476 35.7793
RightForeArm  173.793 72.037 150.423
RightHand  -2.14239 -0.764322 -50.7288
LeftUpLeg  -49.2231 -10.9993 5.45889
LeftLeg  88.0293 -0.283226 18.1786
LeftFoot  -23.7823 -1.19015 -12.205
LeftToes  -7.27922e-012 9.28972e-011 -9.04533e-012
264
root  4.55406 30.8232 -1.16161 20.7027 -51.7195 -25.722
RightUpLeg  -44.799 -13.8943 22.2168
RightLeg  78.2042 0.386676 0.513935
RightFoot  -20.2349 -0.018656 1.53974
RightToes  -1.28057e-009 0 -3.6325e-017
Spine  41.5441 2.99359 -5.14695
Spine1  -2.16558 -4.56621 32.1233
HEad  -35.6882 -8.10163 1.06925
LeftShoulder1  0.456449 -4.74682 3.34001
LeftArm  23.9985 -50.3761 -88.0343
LeftForeArm  162.726 -81.111 -112.525
LeftHand  -0.0429667 5.2404 49.4733
RightShoulder  1.23286 2.1086 15.2315
RightArm  -44.2972 10.3018 37.8232
RightForeArm  131.975 80.3569 106.875
RightHand  -2.66688 0.208045 -51.9049
LeftUpLeg  -51.1353 -18.9453 16.3988
LeftLeg  85.2985 0.740336 20.4152
LeftFoot  -22.4843 -1.23929 -14.023
LeftToes  -7.27922e-012 9.28972e-011 -9.04533e-012
265
root  4.15218 31.5973 -1.38179 27.4209 -47.2986 -31.276
RightUpLeg  -44.4012 -19.7924 28.7853
RightLeg  72.1643 1.78029 5.28516
RightFoot  -19.5618 -0.00626163 1.78018
RightToes  -1.28057e-009 0 -3.6325e-017
Spine  39.8039 3.77837 -6.92032
Spine1  -2.67304 -5.87307 41.2724
HEad  -35.5855 -4.44859 1.94698
LeftShoulder1  0.274266 -3.68461 5.228
LeftArm  46.1738 -47.1946 -100.617
LeftForeArm  92.1815 -76.7591 -37.4054
LeftHand  0.253264 5.84168 52.5426
RightShoulder  1.49351 2.66587 17.6794
RightArm  -43.363 8.33494 40.6379
RightForeArm  55.8371 73.1284 32.2736
RightHand  -3.13957 0.932915 -53.8255
LeftUpLeg  -53.2472 -23.7952 24.6325
LeftLeg  82.5534 2.04803 22.7982
LeftFoot  -21.2882 -1.15583 -14.6507
LeftToes  -7.27922e-012 9.28972e-011 -9.04533e-012
266
root  4.03995 32.2355 -1.40406 30.4946 -46.7043 -32.9745
RightUpLeg  -43.8002 -21.2523 30.4013
RightLeg  68.3047 3.53372 9.08645
RightFoot  -18.6512 0.0986591 3.52067
RightToes  -1.28057e-009 0 -3.6325e-017
Spine  38.6358 4.29324 -7.30415
Spine1  -2.79719 -5.63125 42.8434
HEad  -36.9268 -3.05948 4.66933
LeftShoulder1  0.37813 -3.99563 3.9186
LeftArm  60.764 -42.6527 -105.752
LeftForeArm  69.5723 -60.577 -13.1764
LeftHand  0.72045 6.68927 55.9403
RightShoulder  1.68691 3.02468 19.4473
RightArm  -39.5832 7.75786 42.9741
RightForeArm  32.6592 55.4106 13.1288
RightHand  -3.33336 1.22674 -54.4804
LeftUpLeg  -53.3213 -24.993 26.9281
LeftLeg  79.6837 3.7757 25.681
LeftFoot  -19.9365 -0.893812 -13.4213
LeftToes  -7.27922e-012 9.28972e-011 -9.04533e-012
267
root  4.17722 32.8006 -1.17551 30.1303 -49.3757 -31.4246
RightUpLeg  -42.6037 -19.1959 27.6288
RightLeg  66.0384 3.78454 8.67256
RightFoot  -17.9105 0.100363 3.84549
RightToes  -1.28057e-009 0 -3.6325e-017
Spine  38.2633 3.99033 -5.60309
Spine1  -2.45901 -4.45042 37.4868
HEad  -39.7479 -4.21149 6.46835
LeftShoulder1  0.940682 -5.67456 -1.91031
LeftArm  66.2628 -38.5279 -101.068
LeftForeArm  60.7893 -45.0089 -7.00984
LeftHand  1.1116 7.41115 56.4277
RightShoulder  1.76323 3.19655 19.9566
RightArm  -30.9782 8.70476 45.6939
RightForeArm  25.1 40.2565 7.65276
RightHand  -3.41945 1.52314 -53.6156
LeftUpLeg  -51.078 -23.9489 23.8617
LeftLeg  76.6845 5.38828 26.2508
LeftFoot  -19.1751 -0.733013 -12.3485
LeftToes  -7.27922e-012 9.28972e-011 -9.04533e-012
268
root  4.39152 33.3427 -0.755882 25.6475 -53.0105 -26.4594
RightUpLeg  -40.6261 -15.3274 22.2431
RightLeg  64.4955 1.93733 3.8431
RightFoot  -17.5165 0.0168561 2.50096
RightToes  -1.28057e-009 0 -3.6325e-017
Spine  38.8884 2.24368 -2.27733
Spine1  -2.11692 -3.5563 28.4321
HEad  -42.9323 -7.10264 5.94293
LeftShoulder1  1.9724 -7.50377 -10.7065
LeftArm  61.0907 -34.8254 -88.2102
LeftForeArm  50.4744 -34.0877 -4.70081
LeftHand  1.19815 7.62968 55.1989
RightShoulder  1.70736 3.14608 19.2598
RightArm  -18.089 10.4087 50.0773
RightForeArm  24.9493 33.8761 6.05169
RightHand  -3.3817 1.62246 -52.4435
LeftUpLeg  -47.0581 -21.7151 17.6411
LeftLeg  73.1715 6.19003 23.0681
LeftFoot  -19.4445 -0.720251 -11.78
LeftToes  -7.27922e-012 9.28972e-011 -9.04533e-012
269
root  4.55637 33.9145 -0.259209 16.4873 -56.0693 -17.4407
RightUpLeg  -37.8032 -9.24138 14.5304
RightLeg  63.6437 -0.799117 -2.37006
RightFoot  -16.9936 0.0289066 2.94777
RightToes  -1.28057e-009 0 -3.6325e-017
Spine  39.4044 -0.741579 0.855268
Spine1  -1.41344 -3.70599 17.8372
HEad  -44.9056 -10.4509 4.65633
LeftShoulder1  2.83304 -8.20514 -17.6361
LeftArm  43.4693 -30.4339 -73.0085
LeftForeArm  41.3155 -29.4776 -4.14258
LeftHand  0.84106 7.00128 53.5817
RightShoulder  1.5624 2.87511 17.9829
RightArm  -6.19508 12.6254 56.4821
RightForeArm  30.4909 35.757 6.26632
RightHand  -3.09663 1.1897 -51.355
LeftUpLeg  -41.408 -17.4436 8.86738
LeftLeg  68.3976 6.54565 18.4521
LeftFoot  -20.1328 -0.572349 -9.02465
LeftToes  -7.27922e-012 9.28972e-011 -9.04533e-012
270
root  4.64063 34.4807 0.263852 2.87653 -58.8505 -3.59641
RightUpLeg  -35.192 0.625554 4.39445
RightLeg  63.9037 -3.04378 -7.35837
RightFoot  -16.2798 0.203802 7.30373
RightToes  -1.28057e-009 0 -3.6325e-017
Spine  38.1115 -3.68267 2.24057
Spine1  0.355415 -3.98931 5.30144
HEad  -44.4526 -13.4592 4.64984
LeftShoulder1  2.95951 -7.93928 -19.3712
LeftArm  19.1227 -25.0449 -61.1351
LeftForeArm  39.2238 -31.0036 -4.61424
LeftHand  0.516706 6.40126 51.8967
RightShoulder  1.37062 2.50178 16.1681
RightArm  2.98077 15.7066 64.4025
RightForeArm  38.6849 41.3912 7.351
RightHand  -2.77764 0.66489 -50.2418
LeftUpLeg  -34.9447 -8.7384 -2.12222
LeftLeg  61.8445 6.78255 14.1325
LeftFoot  -20.8105 -0.17455 -3.62945
LeftToes  -7.27922e-012 9.28972e-011 -9.04533e-012
271
root  4.62381 35.0465 0.815468 -14.0587 -61.4038 14.1651
RightUpLeg  -33.4609 12.8914 -6.1227
RightLeg  64.3647 -4.81811 -11.4153
RightFoot  -15.4114 0.348002 12.7529
RightToes  -1.28057e-009 0 -3.6325e-017
Spine  35.2157 -5.52472 2.77171
Spine1  2.2492 -2.74917 -9.21178
HEad  -41.3406 -16.229 5.61694
LeftShoulder1  2.60089 -7.26985 -17.5033
LeftArm  -1.75857 -21.0338 -53.4055
LeftForeArm  41.4455 -35.7191 -5.6163
LeftHand  0.750454 6.86345 52.2792
RightShoulder  1.09774 1.98042 13.0552
RightArm  10.6755 19.3898 72.5311
RightForeArm  46.6103 48.6854 9.29422
RightHand  -2.58077 0.382893 -49.112
LeftUpLeg  -28.9017 4.66098 -12.6281
LeftLeg  53.8269 5.33552 8.40296
LeftFoot  -21.0856 0.154804 0.382123
LeftToes  -7.27922e-012 9.28972e-011 -9.04533e-012
272
root  4.52346 35.6659 1.34881 -29.6165 -62.9578 30.8848
RightUpLeg  -32.6772 23.2404 -13.9491
RightLeg  63.6614 -7.03851 -15.625
RightFoot  -13.8918 0.253016 15.3908
RightToes  -1.28057e-009 0 -3.6325e-017
Spine  32.3503 -6.23356 4.08518
Spine1  2.28746 -0.412754 -22.3419
HEad  -36.7686 -18.5953 5.6568
LeftShoulder1  2.11275 -6.24322 -14.8163
LeftArm  -18.6709 -20.285 -48.8608
LeftForeArm  44.4865 -41.917 -7.10975
LeftHand  1.22462 7.71768 54.5565
RightShoulder  0.714403 0.975837 8.44604
RightArm  15.9934 23.1227 78.9714
RightForeArm  55.0142 58.6318 13.5566
RightHand  -2.29407 -0.15369 -48.2707
LeftUpLeg  -24.6651 17.972 -19.5225
LeftLeg  46.4614 0.883542 1.46161
LeftFoot  -19.6484 0.102898 -0.34073
LeftToes  -7.27922e-012 9.28972e-011 -9.04533e-012
273
root  4.42195 36.3107 1.69187 -36.9396 -63.4297 39.4956
RightUpLeg  -32.1608 27.7123 -17.4278
RightLeg  61.2986 -9.62332 -18.7982
RightFoot  -12.2295 0.0320594 14.6025
RightToes  -1.28057e-009 0 -3.6325e-017
Spine  30.46 -6.42579 5.47623
Spine1  0.3066 0.654278 -29.2819
HEad  -32.8029 -19.3942 4.20063
LeftShoulder1  1.64525 -4.98497 -12.2972
LeftArm  -32.7282 -21.3963 -47.8642
LeftForeArm  48.0889 -52.6859 -10.9675
LeftHand  1.30925 7.86331 54.8785
RightShoulder  0.347765 -0.56513 3.8847
RightArm  17.2982 26.7177 81.411
RightForeArm  70.0351 71.3451 25.8702
RightHand  -2.01189 -0.774778 -48.0891
LeftUpLeg  -22.7238 23.9614 -22.1503
LeftLeg  41.5965 -3.12961 -2.59651
LeftFoot  -16.6236 -0.07988 -3.91212
LeftToes  -7.27922e-012 9.28972e-011 -9.04533e-012
